<?xml version="1.0" encoding="UTF-8" standalone="no"?>
<!-- Created with Inkscape (http://www.inkscape.org/) -->
<svg
   xmlns:dc="http://purl.org/dc/elements/1.1/"
   xmlns:cc="http://web.resource.org/cc/"
   xmlns:rdf="http://www.w3.org/1999/02/22-rdf-syntax-ns#"
   xmlns:svg="http://www.w3.org/2000/svg"
   xmlns="http://www.w3.org/2000/svg"
   xmlns:xlink="http://www.w3.org/1999/xlink"
   xmlns:sodipodi="http://sodipodi.sourceforge.net/DTD/sodipodi-0.dtd"
   xmlns:inkscape="http://www.inkscape.org/namespaces/inkscape"
   id="svg1923"
   sodipodi:version="0.32"
   inkscape:version="0.44"
   width="1182"
   height="635"
   version="1.0"
   sodipodi:docbase="/Users/amyshore/Desktop"
   sodipodi:docname="usa.svg">
  <metadata
     id="metadata1928">
    <rdf:RDF>
      <cc:Work
         rdf:about="">
        <dc:format>image/svg+xml</dc:format>
        <dc:type
           rdf:resource="http://purl.org/dc/dcmitype/StillImage" />
      </cc:Work>
    </rdf:RDF>
  </metadata>
  <defs
     id="defs1926" />
  <sodipodi:namedview
     inkscape:window-height="752"
     inkscape:window-width="1280"
     inkscape:pageshadow="2"
     inkscape:pageopacity="0.0"
     guidetolerance="10.0"
     gridtolerance="10.0"
     objecttolerance="10.0"
     borderopacity="1.0"
     bordercolor="#666666"
     pagecolor="#ffffff"
     id="base"
     inkscape:zoom="0.59527559"
     inkscape:cx="775.234"
     inkscape:cy="319.32597"
     inkscape:window-x="0"
     inkscape:window-y="22"
     inkscape:current-layer="layer2" />
  <g
     inkscape:groupmode="layer"
     id="layer1"
     inkscape:label="bg"
     style="opacity:1;display:none"
     sodipodi:insensitive="true">
    <image
       xlink:href="ElectoralCollege1996-Large.png"
       sodipodi:absref="/Users/amyshore/Desktop/ElectoralCollege1996-Large.png"
       width="1182"
       height="635"
       id="image1930"
       x="-1.3571358"
       y="1.6798911" />
  </g>
  <g
     inkscape:groupmode="layer"
     id="layer2"
     inkscape:label="vector"
     style="opacity:0.9;display:inline"> <path style="fill:#ed553b;fill-opacity:1;fill-rule:evenodd;stroke:black;stroke-width:1px;stroke-linecap:butt;stroke-linejoin:miter;stroke-opacity:1" d="M 668.30192,458.81575 L 664.94212,445.37659 L 710.71922,438.65702 L 716.17892,446.21654 L 759.43612,443.27672 C 759.43612,443.27672 762.79592,446.21654 764.47582,446.21654 C 766.15572,446.21654 766.15572,434.87725 766.15572,434.87725 L 776.65512,436.55715 C 776.65512,436.55715 779.59492,452.93612 782.53472,457.55583 C 785.47452,462.17553 797.65372,476.03466 796.81382,474.35477 C 795.97382,472.67487 801.43352,490.73374 803.53342,494.93347 C 805.63322,499.13321 812.77282,509.63255 813.19282,514.67223 C 813.61272,519.71191 818.65242,536.51085 815.71262,541.55053 C 812.77282,546.59022 804.37332,554.56971 801.01352,549.95001 C 797.65372,545.3303 790.51422,534.83096 787.57442,534.41098 C 784.63462,533.99101 787.15442,533.57104 786.73442,530.63122 C 786.31452,527.69141 780.43482,524.75159 780.43482,524.75159 C 780.43482,524.75159 780.85482,523.49167 780.01492,521.81178 C 779.17492,520.13188 769.51552,518.45199 768.25562,515.0922 C 766.99572,511.73241 767.41562,501.23307 767.41562,501.23307 C 767.41562,501.23307 761.11602,499.55318 761.11602,496.61337 C 761.11602,493.67355 767.41562,483.17421 761.95602,477.29458 C 756.49632,471.41495 749.77682,472.67487 745.57702,466.79524 C 741.37732,460.91561 738.01752,455.03598 733.39782,455.45596 C 728.77812,455.87593 717.85882,466.79524 711.97912,466.79524 C 706.09952,466.79524 706.51952,463.43546 703.57972,461.33559 C 700.63992,459.23572 694.34032,454.61601 689.72052,454.19604 C 685.10082,453.77606 683.42092,457.9758 678.38132,458.39577 C 673.34162,458.81575 668.30192,460.07567 668.30192,458.81575 z " id="path2821" />   </g>
</svg>
