<?xml version="1.0" encoding="UTF-8" standalone="no"?>
<!-- Created with Inkscape (http://www.inkscape.org/) -->
<svg
   xmlns:dc="http://purl.org/dc/elements/1.1/"
   xmlns:cc="http://web.resource.org/cc/"
   xmlns:rdf="http://www.w3.org/1999/02/22-rdf-syntax-ns#"
   xmlns:svg="http://www.w3.org/2000/svg"
   xmlns="http://www.w3.org/2000/svg"
   xmlns:xlink="http://www.w3.org/1999/xlink"
   xmlns:sodipodi="http://sodipodi.sourceforge.net/DTD/sodipodi-0.dtd"
   xmlns:inkscape="http://www.inkscape.org/namespaces/inkscape"
   id="svg1923"
   sodipodi:version="0.32"
   inkscape:version="0.44"
   width="1182"
   height="635"
   version="1.0"
   sodipodi:docbase="/Users/amyshore/Desktop"
   sodipodi:docname="usa.svg">
  <metadata
     id="metadata1928">
    <rdf:RDF>
      <cc:Work
         rdf:about="">
        <dc:format>image/svg+xml</dc:format>
        <dc:type
           rdf:resource="http://purl.org/dc/dcmitype/StillImage" />
      </cc:Work>
    </rdf:RDF>
  </metadata>
  <defs
     id="defs1926" />
  <sodipodi:namedview
     inkscape:window-height="752"
     inkscape:window-width="1280"
     inkscape:pageshadow="2"
     inkscape:pageopacity="0.0"
     guidetolerance="10.0"
     gridtolerance="10.0"
     objecttolerance="10.0"
     borderopacity="1.0"
     bordercolor="#666666"
     pagecolor="#ffffff"
     id="base"
     inkscape:zoom="0.59527559"
     inkscape:cx="775.234"
     inkscape:cy="319.32597"
     inkscape:window-x="0"
     inkscape:window-y="22"
     inkscape:current-layer="layer2" />
  <g
     inkscape:groupmode="layer"
     id="layer1"
     inkscape:label="bg"
     style="opacity:1;display:none"
     sodipodi:insensitive="true">
    <image
       xlink:href="ElectoralCollege1996-Large.png"
       sodipodi:absref="/Users/amyshore/Desktop/ElectoralCollege1996-Large.png"
       width="1182"
       height="635"
       id="image1930"
       x="-1.3571358"
       y="1.6798911" />
  </g>
  <g
     inkscape:groupmode="layer"
     id="layer2"
     inkscape:label="vector"
     style="opacity:0.9;display:inline"> <path style="fill:#3caea3;fill-opacity:1;fill-rule:evenodd;stroke:black;stroke-width:1px;stroke-linecap:butt;stroke-linejoin:miter;stroke-opacity:1" d="M 689.11532,212.88893 C 689.11532,212.88893 687.92742,228.92511 689.11532,234.2705 C 690.30312,239.61589 693.56982,245.55521 693.56982,251.49453 C 693.56982,257.43386 695.05462,274.36093 695.05462,274.36093 C 695.05462,274.36093 689.70922,276.43969 688.52132,278.51845 C 687.33352,280.59722 690.00622,287.42744 683.76992,289.20923 C 677.53362,290.99103 671.00032,293.96069 671.00032,293.96069 C 671.00032,293.96069 662.38832,296.63339 658.52782,296.93035 C 654.66722,297.22732 646.05522,301.38485 646.05522,301.38485 C 646.05522,301.38485 646.94612,291.58496 650.21272,285.94261 C 653.47932,280.30025 649.91572,261.59138 649.91572,258.91869 C 649.91572,256.24599 646.64912,239.31892 646.64912,233.97353 C 646.64912,228.62814 646.94612,219.71916 646.94612,219.71916 C 646.94612,219.71916 650.21272,221.20399 653.18242,220.31309 C 656.15202,219.42219 658.52782,214.9677 658.52782,214.9677 L 689.11532,212.88893 z " id="path12616" />   </g>
</svg>
