<?xml version="1.0" encoding="UTF-8" standalone="no"?>
<!-- Created with Inkscape (http://www.inkscape.org/) -->
<svg
   xmlns:dc="http://purl.org/dc/elements/1.1/"
   xmlns:cc="http://web.resource.org/cc/"
   xmlns:rdf="http://www.w3.org/1999/02/22-rdf-syntax-ns#"
   xmlns:svg="http://www.w3.org/2000/svg"
   xmlns="http://www.w3.org/2000/svg"
   xmlns:xlink="http://www.w3.org/1999/xlink"
   xmlns:sodipodi="http://sodipodi.sourceforge.net/DTD/sodipodi-0.dtd"
   xmlns:inkscape="http://www.inkscape.org/namespaces/inkscape"
   id="svg1923"
   sodipodi:version="0.32"
   inkscape:version="0.44"
   width="1182"
   height="635"
   version="1.0"
   sodipodi:docbase="/Users/amyshore/Desktop"
   sodipodi:docname="usa.svg">
  <metadata
     id="metadata1928">
    <rdf:RDF>
      <cc:Work
         rdf:about="">
        <dc:format>image/svg+xml</dc:format>
        <dc:type
           rdf:resource="http://purl.org/dc/dcmitype/StillImage" />
      </cc:Work>
    </rdf:RDF>
  </metadata>
  <defs
     id="defs1926" />
  <sodipodi:namedview
     inkscape:window-height="752"
     inkscape:window-width="1280"
     inkscape:pageshadow="2"
     inkscape:pageopacity="0.0"
     guidetolerance="10.0"
     gridtolerance="10.0"
     objecttolerance="10.0"
     borderopacity="1.0"
     bordercolor="#666666"
     pagecolor="#ffffff"
     id="base"
     inkscape:zoom="0.59527559"
     inkscape:cx="775.234"
     inkscape:cy="319.32597"
     inkscape:window-x="0"
     inkscape:window-y="22"
     inkscape:current-layer="layer2" />
  <g
     inkscape:groupmode="layer"
     id="layer1"
     inkscape:label="bg"
     style="opacity:1;display:none"
     sodipodi:insensitive="true">
    <image
       xlink:href="ElectoralCollege1996-Large.png"
       sodipodi:absref="/Users/amyshore/Desktop/ElectoralCollege1996-Large.png"
       width="1182"
       height="635"
       id="image1930"
       x="-1.3571358"
       y="1.6798911" />
  </g>
  <g
     inkscape:groupmode="layer"
     id="layer2"
     inkscape:label="vector"
     style="opacity:0.9;display:inline">
      <path style="fill:#173f5f;fill-opacity:1;fill-rule:evenodd;stroke:black;stroke-width:1px;stroke-linecap:butt;stroke-linejoin:miter;stroke-opacity:1" d="M 632.09782,132.41111 C 632.09782,132.41111 634.77052,140.72616 635.66142,142.50796 C 636.55232,144.28976 638.03712,144.88369 638.03712,144.88369 C 638.03712,144.88369 641.60072,142.80493 641.60072,140.72616 C 641.60072,138.6474 640.70982,134.78684 643.38252,132.70808 C 646.05522,130.62931 654.07332,130.92628 655.26112,130.92628 C 656.44902,130.92628 655.55812,124.68999 660.60652,123.79909 C 665.65502,122.90819 670.70342,120.82943 673.37612,121.1264 C 676.04882,121.42336 678.42452,124.98696 679.61242,124.39302 C 680.80022,123.79909 680.20632,121.42336 681.98812,121.1264 C 683.76992,120.82943 686.73952,121.72033 687.33352,120.2355 C 687.92742,118.75067 686.14562,114.89011 682.87902,113.99921 C 679.61242,113.10831 674.56392,113.40528 674.56392,113.40528 C 674.56392,113.40528 676.34572,111.02955 671.89122,109.24775 C 667.43672,107.46595 665.95192,111.62348 662.98232,111.62348 C 660.01262,111.62348 658.23082,111.62348 656.15202,113.10831 C 654.07332,114.59314 654.37022,116.37494 652.58842,116.6719 C 650.80662,116.96887 639.81892,116.96887 639.81892,116.96887 C 639.81892,116.96887 636.25532,111.92045 633.58262,110.73258 C 630.90992,109.54472 625.26762,110.13865 624.07972,108.65382 C 622.89182,107.16899 622.00092,103.90236 624.07972,101.52663 C 626.15852,99.150907 628.83112,97.072137 628.83112,97.072137 L 625.56452,97.072137 L 611.60712,111.62348 C 611.60712,111.62348 607.44962,111.62348 604.77692,112.51438 C 602.10422,113.40528 596.46182,117.5628 596.46182,117.5628 C 596.46182,117.5628 607.44962,124.09606 610.41922,124.98696 C 613.38892,125.87786 616.65552,128.25358 620.51612,128.84752 C 624.37672,129.44145 632.09782,132.11414 632.09782,132.41111 z " id="path12624" />
      <path style="fill:#173f5f;fill-opacity:1;fill-rule:evenodd;stroke:black;stroke-width:1px;stroke-linecap:butt;stroke-linejoin:miter;stroke-opacity:1" d="M 658.82472,215.56163 L 689.11532,213.1859 L 689.70922,214.0768 L 706.33932,210.81017 L 712.57562,203.08905 C 712.57562,203.08905 713.16952,199.52546 714.65442,195.07097 C 716.13922,190.61647 720.29672,189.72558 720.59372,186.75591 C 720.89072,183.78625 718.21802,176.3621 717.32712,173.09547 C 716.43622,169.82884 714.95132,164.18649 710.49682,163.59256 C 706.04232,162.99862 698.91522,169.53188 698.91522,169.53188 C 698.91522,169.53188 696.53942,166.26525 699.21212,162.40469 C 701.88482,158.54413 703.96362,154.98054 703.96362,151.71391 C 703.96362,148.44728 701.58792,144.88369 701.29092,141.61706 C 700.99392,138.35043 704.55752,136.27167 700.40002,134.48987 C 696.24252,132.70808 681.69112,129.14448 679.01842,129.73841 C 676.34572,130.33235 676.64272,133.89594 675.75182,136.8656 C 674.86092,139.83526 673.37612,146.07155 673.07912,147.25942 C 672.78212,148.44728 663.27922,150.82301 662.09142,152.01088 C 660.90352,153.19874 660.30962,160.32593 658.82472,162.99862 C 657.33992,165.67132 658.52782,175.17423 658.82472,178.73783 C 659.12172,182.30142 665.65502,187.64681 664.17012,192.69524 C 662.68532,197.74366 667.43672,202.79209 663.57622,207.24658 C 659.71562,211.70107 659.71562,216.74949 658.82472,215.56163 z " id="path12618" />   
     </g>
</svg>
