<?xml version="1.0" encoding="UTF-8" standalone="no"?>
<!-- Created with Inkscape (http://www.inkscape.org/) -->
<svg
   xmlns:dc="http://purl.org/dc/elements/1.1/"
   xmlns:cc="http://web.resource.org/cc/"
   xmlns:rdf="http://www.w3.org/1999/02/22-rdf-syntax-ns#"
   xmlns:svg="http://www.w3.org/2000/svg"
   xmlns="http://www.w3.org/2000/svg"
   xmlns:xlink="http://www.w3.org/1999/xlink"
   xmlns:sodipodi="http://sodipodi.sourceforge.net/DTD/sodipodi-0.dtd"
   xmlns:inkscape="http://www.inkscape.org/namespaces/inkscape"
   id="svg1923"
   sodipodi:version="0.32"
   inkscape:version="0.44"
   width="1182"
   height="635"
   version="1.0"
   sodipodi:docbase="/Users/amyshore/Desktop"
   sodipodi:docname="usa.svg">
  <metadata
     id="metadata1928">
    <rdf:RDF>
      <cc:Work
         rdf:about="">
        <dc:format>image/svg+xml</dc:format>
        <dc:type
           rdf:resource="http://purl.org/dc/dcmitype/StillImage" />
      </cc:Work>
    </rdf:RDF>
  </metadata>
  <defs
     id="defs1926" />
  <sodipodi:namedview
     inkscape:window-height="752"
     inkscape:window-width="1280"
     inkscape:pageshadow="2"
     inkscape:pageopacity="0.0"
     guidetolerance="10.0"
     gridtolerance="10.0"
     objecttolerance="10.0"
     borderopacity="1.0"
     bordercolor="#666666"
     pagecolor="#ffffff"
     id="base"
     inkscape:zoom="0.59527559"
     inkscape:cx="775.234"
     inkscape:cy="319.32597"
     inkscape:window-x="0"
     inkscape:window-y="22"
     inkscape:current-layer="layer2" />
  <g
     inkscape:groupmode="layer"
     id="layer1"
     inkscape:label="bg"
     style="opacity:1;display:none"
     sodipodi:insensitive="true">
    <image
       xlink:href="ElectoralCollege1996-Large.png"
       sodipodi:absref="/Users/amyshore/Desktop/ElectoralCollege1996-Large.png"
       width="1182"
       height="635"
       id="image1930"
       x="-1.3571358"
       y="1.6798911" />
  </g>
  <g
     inkscape:groupmode="layer"
     id="layer2"
     inkscape:label="vector"
     style="opacity:0.9;display:inline"> <path style="fill:#f6d55c;fill-opacity:1;fill-rule:evenodd;stroke:black;stroke-width:1px;stroke-linecap:butt;stroke-linejoin:miter;stroke-opacity:1" d="M 395.71272,321.28158 C 395.71272,321.28158 410.85802,319.20281 413.23372,319.49978 C 415.60952,319.79675 454.80902,322.76641 458.07562,322.76641 C 461.34222,322.76641 502.32362,323.65731 505.29322,323.65731 C 508.26292,323.65731 536.77162,323.95427 536.77162,323.95427 C 536.77162,323.95427 539.44432,352.46302 539.14742,356.32358 C 538.85042,360.18414 539.44432,394.63221 539.44432,394.63221 C 539.44432,394.63221 533.50502,388.98986 528.75362,388.98986 C 524.00212,388.98986 516.28102,389.28682 514.20222,389.58379 C 512.12352,389.88076 511.23262,392.25648 508.55992,392.55345 C 505.88722,392.85042 495.49342,392.25648 492.52372,391.66255 C 489.55402,391.06862 490.14802,388.39592 487.77222,388.39592 C 485.39652,388.39592 485.69352,389.28682 481.83292,388.98986 C 477.97232,388.69289 480.05112,385.42626 475.29972,384.83233 C 470.54822,384.2384 468.17252,385.72323 465.49982,385.1293 C 462.82712,384.53536 458.37262,377.70514 455.10602,377.40818 C 451.83932,377.11121 449.46362,377.11121 447.38482,376.51728 C 445.30612,375.92335 444.41522,376.22031 443.52432,371.76582 C 442.63342,367.31133 447.38482,334.34809 445.00912,334.05112 C 442.63342,333.75415 395.11882,331.08146 395.11882,331.08146 L 395.71272,321.28158 z " id="path12638" />   </g>
</svg>
